<svg width="13" height="12" viewBox="0 0 13 12" fill="none" xmlns="http://www.w3.org/2000/svg">
<path d="M10.6471 3.99609C10.1252 3.99609 9.68157 3.81341 9.31622 3.44807C8.95088 3.08273 8.76821 2.6391 8.76821 2.11718C8.76821 1.59527 8.95088 1.15164 9.31622 0.786294C9.68157 0.420952 10.1252 0.238281 10.6471 0.238281C11.169 0.238281 11.6127 0.420952 11.978 0.786294C12.3433 1.15164 12.526 1.59527 12.526 2.11718C12.526 2.6391 12.3433 3.08273 11.978 3.44807C11.6127 3.81341 11.169 3.99609 10.6471 3.99609ZM1.2526 11.5117C0.908136 11.5117 0.613253 11.389 0.367952 11.1437C0.122651 10.8984 0 10.6036 0 10.2591V2.74348C0 2.39902 0.122651 2.10414 0.367952 1.85883C0.613253 1.61353 0.908136 1.49088 1.2526 1.49088H7.57824C7.53649 1.69965 7.51561 1.90842 7.51561 2.11718C7.51561 2.32595 7.53649 2.53472 7.57824 2.74348C7.65131 3.07751 7.77135 3.38805 7.93836 3.67511C8.10538 3.96216 8.30892 4.21529 8.549 4.4345L6.26301 5.87499L1.2526 2.74348V3.99609L6.26301 7.12759L9.56674 5.0608C9.74419 5.12343 9.92165 5.1704 10.0991 5.20171C10.2766 5.23303 10.4592 5.24869 10.6471 5.24869C10.9811 5.24869 11.3099 5.1965 11.6335 5.09211C11.9571 4.98773 12.2546 4.83115 12.526 4.62239V10.2591C12.526 10.6036 12.4034 10.8984 12.1581 11.1437C11.9128 11.389 11.6179 11.5117 11.2734 11.5117H1.2526Z" fill="white"/>
</svg>
