<svg width="15" height="15" viewBox="0 0 15 15" fill="none" xmlns="http://www.w3.org/2000/svg">
<path d="M9.18545 3.125C9.79845 3.2441 10.3618 3.54266 10.8034 3.98246C11.2451 4.42226 11.5449 4.98329 11.6645 5.59375M9.18545 0.625C10.459 0.765898 11.6467 1.33386 12.5533 2.23563C13.46 3.1374 14.0318 4.31938 14.1749 5.5875M13.5473 10.575V12.45C13.548 12.6241 13.5122 12.7964 13.4422 12.9558C13.3722 13.1153 13.2695 13.2585 13.1407 13.3762C13.0119 13.4938 12.8598 13.5834 12.6942 13.6392C12.5286 13.695 12.3532 13.7157 12.1791 13.7C10.2479 13.491 8.39278 12.8338 6.76289 11.7813C5.24649 10.8217 3.96085 9.54136 2.99727 8.03125C1.9366 6.40075 1.27653 4.54437 1.07052 2.6125C1.05484 2.43967 1.07547 2.26548 1.13109 2.10102C1.18671 1.93656 1.27611 1.78543 1.39359 1.65726C1.51108 1.5291 1.65407 1.42669 1.81348 1.35658C1.97288 1.28646 2.1452 1.25016 2.31946 1.25H4.20227C4.50685 1.24701 4.80213 1.35442 5.03307 1.55221C5.26401 1.74999 5.41485 2.02465 5.45748 2.325C5.53695 2.92504 5.68432 3.5142 5.8968 4.08125C5.98124 4.30495 5.99951 4.54807 5.94946 4.7818C5.8994 5.01553 5.78312 5.23007 5.61438 5.4L4.81732 6.19375C5.71075 7.75847 7.01171 9.05403 8.58295 9.94375L9.38 9.15C9.55064 8.98196 9.76608 8.86616 10.0008 8.81631C10.2355 8.76646 10.4796 8.78466 10.7042 8.86875C11.2737 9.08034 11.8653 9.22711 12.4678 9.30625C12.7727 9.34908 13.0511 9.502 13.2501 9.73593C13.4492 9.96986 13.5549 10.2685 13.5473 10.575Z" stroke="white" stroke-width="1.25" stroke-linecap="round" stroke-linejoin="round"/>
</svg>
